<svg>
<symbol id="instagram" width="40" height="40" viewBox="0 0 40 40" fill="none" xmlns="http://www.w3.org/2000/symbol">
<g clip-path="url(#clip0_1_185)">
<path d="M7.91666 40H32.0834C36.4483 40 40 36.4483 40 32.0834V7.91666C40 3.55166 36.4483 0 32.0834 0H7.91666C3.55166 0 0 3.55166 0 7.91666V32.0834C0 36.4483 3.55166 40 7.91666 40ZM2.5 7.91666C2.5 4.93 4.93 2.5 7.91666 2.5H32.0834C35.07 2.5 37.5 4.93 37.5 7.91666V32.0834C37.5 35.07 35.07 37.5 32.0834 37.5H7.91666C4.93 37.5 2.5 35.07 2.5 32.0834V7.91666Z" fill="#726DA8"/>
<path d="M20.0001 30.2167C25.6334 30.2167 30.2167 25.6334 30.2167 20.0001C30.2167 14.3667 25.6334 9.78336 20.0001 9.78336C14.3667 9.78336 9.78339 14.3667 9.78339 20.0001C9.78339 25.6334 14.3667 30.2167 20.0001 30.2167ZM20.0001 12.2834C24.2551 12.2834 27.7167 15.745 27.7167 20.0001C27.7167 24.255 24.2551 27.7167 20.0001 27.7167C15.7451 27.7167 12.2834 24.255 12.2834 20.0001C12.2834 15.745 15.7451 12.2834 20.0001 12.2834Z" fill="#726DA8"/>
<path d="M30.5965 12.2698C32.2399 12.2698 33.4782 11.0366 33.4782 9.40152C33.4782 7.69654 32.1749 6.5332 30.5982 6.5332C28.9549 6.5332 27.7166 7.76654 27.7166 9.40152C27.7166 11.1032 29.0133 12.2698 30.5965 12.2698ZM30.8916 9.12656C31.4182 9.59152 30.2165 10.1566 30.2165 9.4032C30.2165 8.9532 30.8282 9.06984 30.8916 9.12656Z" fill="#726DA8"/>
</g>
</symbol>

<symbol id="telegram" width="40" height="40" viewBox="0 0 40 40" fill="none" xmlns="http://www.w3.org/2000/symbol">
<g clip-path="url(#clip0_1_189)">
<path d="M0.691767 18.66L10.4734 23.535C10.8518 23.7216 11.2984 23.7083 11.6601 23.4966L20.3668 18.435L15.0968 23.105C14.8284 23.3433 14.6751 23.6833 14.6751 24.0416V35.4166C14.6751 36.6166 16.2068 37.1216 16.9251 36.1683L21.1534 30.5466L31.6101 36.5016C32.3434 36.9233 33.2834 36.5 33.4534 35.6616L39.9751 3.16163C40.1701 2.18496 39.1984 1.38829 38.2951 1.75163L0.795101 16.3766C-0.211566 16.77 -0.276566 18.1783 0.691767 18.66ZM37.0751 4.91163L31.3434 33.4733L21.4351 27.83C20.8951 27.5216 20.2001 27.6583 19.8168 28.165L17.1751 31.6766V24.6033L31.4268 11.9766C32.5551 10.9783 31.2584 9.20329 29.9701 9.95996L10.9868 20.9966L4.33343 17.6816L37.0751 4.91163Z" fill="#726DA8"/>
</g>
</symbol>

<symbol id="vk" width="40" height="40" viewBox="0 0 40 40" fill="none" xmlns="http://www.w3.org/2000/symbol">
<g clip-path="url(#clip0_1_191)">
<path d="M20.2417 32.5C26.0283 32.5 23.965 28.8366 24.4117 27.7834C24.405 26.9966 24.3983 26.24 24.425 25.78C24.7917 25.8834 25.6566 26.3217 27.4434 28.0583C30.2017 30.8417 30.9066 32.5 33.135 32.5H37.2366C38.5366 32.5 39.2134 31.9617 39.5517 31.51C39.8783 31.0734 40.1983 30.3066 39.8483 29.1134C38.9334 26.24 33.5966 21.2783 33.265 20.755C33.315 20.6583 33.395 20.53 33.4366 20.4634H33.4334C34.4866 19.0717 38.5066 13.0483 39.0983 10.6383C39.1 10.635 39.1017 10.63 39.1017 10.625C39.4217 9.52496 39.1283 8.81168 38.825 8.40832C38.3683 7.805 37.6417 7.5 36.66 7.5H32.5583C31.185 7.5 30.1434 8.19168 29.6166 9.45336C28.735 11.695 26.2583 16.305 24.4017 17.9366C24.345 15.625 24.3834 13.86 24.4134 12.5483C24.4734 9.99 24.6666 7.5 22.0117 7.5H15.565C13.9017 7.5 12.31 9.31664 14.0334 11.4734C15.54 13.3634 14.575 14.4166 14.9 19.66C13.6334 18.3017 11.38 14.6334 9.78664 9.94496C9.34 8.67664 8.66336 7.50166 6.75834 7.50166H2.65666C0.993336 7.50166 0 8.40832 0 9.92664C0 13.3366 7.54834 32.5 20.2417 32.5ZM6.75834 10.0017C7.12 10.0017 7.15666 10.0017 7.425 10.7634C9.05664 15.5683 12.7166 22.6783 15.39 22.6783C17.3983 22.6783 17.3983 20.62 17.3983 19.845L17.3966 13.675C17.2866 11.6334 16.5434 10.6166 16.055 10L21.9017 10.0066C21.905 10.035 21.8683 16.8317 21.9183 18.4783C21.9183 20.8166 23.775 22.1566 26.6734 19.2234C29.7317 15.7717 31.8466 10.6117 31.9317 10.4017C32.0566 10.1017 32.165 10 32.5583 10H36.66H36.6766C36.675 10.005 36.675 10.01 36.6734 10.015C36.2983 11.765 32.5966 17.3417 31.3583 19.0734C31.3383 19.1 31.32 19.1283 31.3017 19.1566C30.7566 20.0466 30.3134 21.03 31.3766 22.4134H31.3783C31.475 22.53 31.7266 22.8034 32.0934 23.1834C33.2334 24.36 37.1434 28.3834 37.49 29.9834C37.26 30.02 37.01 29.9934 33.135 30.0017C32.31 30.0017 31.665 28.7683 29.2034 26.285C26.99 24.1317 25.5534 23.2517 24.245 23.2517C21.705 23.2517 21.89 25.3134 21.9134 27.8066C21.9217 30.51 21.905 29.655 21.9234 29.825C21.775 29.8834 21.35 30 20.2417 30C9.66664 30 2.78 13.215 2.515 10.0066C2.60666 9.99832 3.86834 10.0034 6.75834 10.0017Z" fill="#726DA8"/>
</g>
</symbol>
</svg>